<svg width="20" height="20" viewBox="0 0 20 20" xmlns="http://www.w3.org/2000/svg">
  <path fill="currentColor" d="M2.43519 4.5571C1.8494 3.97132 1.8494 3.02157 2.43519 2.43578C3.02098 1.85 3.97072 1.85 4.55651 2.43578L9.99645 7.87573L15.4364 2.43578C16.0222 1.85 16.9719 1.85 17.5577 2.43578C18.1435 3.02157 18.1435 3.97132 17.5577 4.5571L12.1178 9.99705L17.5577 15.437C18.1435 16.0228 18.1435 16.9725 17.5577 17.5583C16.9719 18.1441 16.0222 18.1441 15.4364 17.5583L9.99645 12.1184L4.55653 17.5583C3.97074 18.1441 3.02099 18.1441 2.43521 17.5583C1.84942 16.9725 1.84942 16.0228 2.43521 15.437L7.87513 9.99705L2.43519 4.5571Z" />
</svg>
